<svg version="1.1" id="Layer_1" xmlns="http://www.w3.org/2000/svg" xmlns:xlink="http://www.w3.org/1999/xlink" x="0px" y="0px"
	 width="100%" viewBox="0 0 116 229" enable-background="new 0 0 116 229" xml:space="preserve">
<path fill="currentColor" opacity="1.000000" stroke="none" 
	d="
M117.000000,149.000000 
	C117.000000,175.898651 117.000000,202.797287 117.000000,230.000000 
	C105.314194,230.000000 93.625755,230.000000 81.468658,229.531342 
	C81.000000,213.587540 81.105194,198.111389 80.954948,182.637711 
	C80.881500,175.074097 81.074272,167.389786 79.823051,159.983719 
	C77.999710,149.191238 72.534164,144.606628 61.011665,143.185989 
	C51.783253,142.048233 42.029213,146.478119 39.098969,156.220230 
	C37.902821,160.197052 37.131660,164.458527 37.091145,168.599548 
	C36.890930,189.064713 37.000000,209.532883 37.000000,230.000000 
	C25.045435,230.000000 13.090870,230.000000 1.000000,230.000000 
	C1.000000,203.645920 1.000000,177.291611 1.336211,150.765106 
	C2.322393,149.004135 3.014828,147.431274 3.615612,145.824142 
	C8.378618,133.082703 15.243533,122.028610 28.303387,115.687080 
	C14.522766,108.058388 6.572513,96.619110 2.895446,81.969147 
	C2.781722,81.516060 1.654646,81.317314 1.000000,81.000000 
	C1.000000,54.434296 1.000000,27.868595 1.000000,1.000000 
	C12.685817,1.000000 24.374250,1.000000 36.531342,1.468657 
	C37.333317,24.299046 37.397659,46.669048 38.085140,69.019890 
	C38.634148,86.868912 58.322117,91.524590 70.530975,84.909096 
	C78.442986,80.621887 80.809715,73.033096 80.911201,64.855453 
	C81.175308,43.573208 81.000000,22.285517 81.000000,1.000000 
	C92.954956,1.000000 104.909912,1.000000 117.000000,1.000000 
	C117.000000,27.687422 117.000000,54.375053 116.671440,81.236572 
	C113.927353,86.737503 111.782730,92.209160 109.033775,97.358185 
	C104.750847,105.380486 97.891602,110.946686 89.867470,115.390724 
	C91.550827,116.267853 92.941803,116.776840 94.084267,117.621834 
	C103.834167,124.832962 111.101318,133.834991 114.413315,145.745193 
	C114.755249,146.974808 116.113388,147.921844 117.000000,149.000000 
z"/>
<path fill="currentColor" opacity="1.000000" stroke="none" 
	d="
M37.468658,230.000000 
	C37.000000,209.532883 36.890930,189.064713 37.091145,168.599548 
	C37.131660,164.458527 37.902821,160.197052 39.098969,156.220230 
	C42.029213,146.478119 51.783253,142.048233 61.011665,143.185989 
	C72.534164,144.606628 77.999710,149.191238 79.823051,159.983719 
	C81.074272,167.389786 80.881500,175.074097 80.954948,182.637711 
	C81.105194,198.111389 81.000000,213.587540 81.000000,229.531342 
	C66.645775,230.000000 52.291546,230.000000 37.468658,230.000000 
z"/>
<path fill="currentColor" opacity="1.000000" stroke="none" 
	d="
M80.531342,1.000000 
	C81.000000,22.285517 81.175308,43.573208 80.911201,64.855453 
	C80.809715,73.033096 78.442986,80.621887 70.530975,84.909096 
	C58.322117,91.524590 38.634148,86.868912 38.085140,69.019890 
	C37.397659,46.669048 37.333317,24.299046 37.000000,1.468657 
	C51.354229,1.000000 65.708458,1.000000 80.531342,1.000000 
z"/>
<path fill="currentColor" opacity="1.000000" stroke="none" 
	d="
M1.000000,81.468658 
	C1.654646,81.317314 2.781722,81.516060 2.895446,81.969147 
	C6.572513,96.619110 14.522766,108.058388 28.303387,115.687080 
	C15.243533,122.028610 8.378618,133.082703 3.615612,145.824142 
	C3.014828,147.431274 2.322393,149.004135 1.336211,150.296448 
	C1.000000,127.312439 1.000000,104.624878 1.000000,81.468658 
z"/>
<path fill="currentColor" opacity="1.000000" stroke="none" 
	d="
M117.000000,148.531342 
	C116.113388,147.921844 114.755249,146.974808 114.413315,145.745193 
	C111.101318,133.834991 103.834167,124.832962 94.084267,117.621834 
	C92.941803,116.776840 91.550827,116.267853 89.867470,115.390724 
	C97.891602,110.946686 104.750847,105.380486 109.033775,97.358185 
	C111.782730,92.209160 113.927353,86.737503 116.671440,81.705231 
	C117.000000,104.020897 117.000000,126.041786 117.000000,148.531342 
z"/>
</svg>